<?xml version="1.0" encoding="UTF-8"?>
<svg id="Layer_1" xmlns="http://www.w3.org/2000/svg" version="1.1" viewBox="0 0 120 33.8">
  <!-- Generator: Adobe Illustrator 29.0.1, SVG Export Plug-In . SVG Version: 2.1.0 Build 192)  -->
  <defs>
    <style>
      .st0 {
        fill: #70c9b6;
      }

      .st1 {
        fill: #b7b7b7;
      }

      .st2 {
        fill: #fff;
      }

      .st3 {
        fill: #37423f;
      }

      .st4 {
        fill: #fe854c;
      }
    </style>
  </defs>
  <path class="st1" d="M38.1,33.5h-3.6c-2.8-.2-4.8-1.6-6.7-3.6l-7.8-8.2h-.2c-2.5,2.5-4.9,5-7.4,7.4-1.7,1.6-3.3,3.3-5.6,4,0,0-1.6.4-2.4.4-1,0-2.1,0-3.1,0,0,0,0-.1,0-.2l13.7-13.4c.7-.6,1.3-1.2,1.9-1.8,1.1-1,2.2-2.1,3.3-3.2,0,0,.1-.3.3-.1.3.4.6.8,1,1.1,4.4,4.7,8.9,9.4,13.4,14l3.2,3.5h0Z"/>
  <path class="st0" d="M.9.3c5.5,0,6.2.4,9.9,4.1,2,2,4.1,4.2,6,6.3,0,0,.2.2.2.3l-3.4,3.5C9.3,9.9,4.9,5.4.6.9c-.1-.1-.3-.4-.5-.4v-.2c.2,0,.6,0,.9,0h0Z"/>
  <path class="st4" d="M34.3.5c-1.7,2.2-4.6,4.6-6.6,6.5-2.4,2.4-4.9,4.9-7.3,7.3l-3.2-3.4c0-.2.1-.2.2-.3,2.2-2.4,4.8-4.8,7.1-7.1,1.1-1,1.7-1.9,3.1-2.6C29.9,0,32.1.3,34.4.3c0,.1,0,.2-.1.2h0Z"/>
  <path class="st3" d="M17.3,11l3.2,3.4c-.1.1-.2.3-.3.4-1,1-2,2.1-3.1,3.1-.2,0-.4-.3-.6-.4-.9-1-1.8-2-2.8-3l3.4-3.5h.2Z"/>
  <path class="st0" d="M29.3,17.6v4.5h-1.7v-11.1h1.9c.9,0,1.6,0,2.1.2.5.1.9.4,1.3.7.6.6,1,1.4,1,2.4s-.3,1.8-1,2.4c-.7.6-1.6.9-2.8.9h-.8ZM29.3,16h.6c1.5,0,2.3-.6,2.3-1.8s-.8-1.7-2.4-1.7h-.6v3.5h0Z"/>
  <path class="st2" d="M35,15.1h1.6v.6c.3-.3.6-.5.8-.6.2-.1.5-.2.8-.2s.9.1,1.3.4l-.7,1.5c-.3-.2-.6-.3-.9-.3-.9,0-1.3.7-1.3,2v3.6h-1.6v-7h0Z"/>
  <path class="st2" d="M46.5,19h-5c0,.6.2,1,.6,1.4.3.3.8.5,1.3.5s.7,0,1-.3c.3-.2.6-.5.9-1.1l1.4.8c-.2.4-.4.7-.7.9-.2.3-.5.5-.8.6-.3.2-.6.3-.9.4s-.6.1-1,.1c-1,0-1.9-.3-2.5-1-.6-.7-.9-1.6-.9-2.7s.3-2,.9-2.7c.6-.7,1.4-1,2.5-1s1.8.3,2.4,1c.6.7.9,1.6.9,2.7v.4s0,0,0,0ZM44.8,17.7c-.2-.9-.8-1.3-1.6-1.3s-.4,0-.6,0c-.2,0-.3.1-.5.3-.1.1-.3.2-.4.4-.1.2-.2.3-.2.5h3.2Z"/>
  <path class="st2" d="M53.4,15.4v2.1c-.4-.5-.7-.8-1-.9-.3-.2-.6-.3-1-.3-.6,0-1.1.2-1.5.6-.4.4-.6,1-.6,1.6s.2,1.2.6,1.6c.4.4.9.6,1.5.6s.7,0,1-.3c.3-.2.6-.5,1-.9v2.1c-.7.3-1.3.5-2,.5-1.1,0-2-.3-2.7-1-.7-.7-1.1-1.6-1.1-2.6s.4-1.9,1.1-2.6c.7-.7,1.6-1.1,2.7-1.1s1.3.2,2,.5h0Z"/>
  <path class="st2" d="M54.5,12.2c0-.3.1-.5.3-.7s.5-.3.7-.3.5.1.7.3c.2.2.3.4.3.7s-.1.5-.3.7c-.2.2-.4.3-.7.3s-.5-.1-.7-.3c-.2-.2-.3-.5-.3-.8h0ZM56.3,15.1v7h-1.6v-7h1.6Z"/>
  <path class="st2" d="M62.2,16.3l-1.3.7c-.2-.4-.5-.6-.8-.6s-.3,0-.4.1-.2.2-.2.4c0,.3.3.5.9.8.9.4,1.4.7,1.7,1,.3.3.4.7.4,1.3s-.2,1.2-.7,1.7c-.5.4-1.1.6-1.8.6-1.2,0-2-.6-2.5-1.7l1.4-.6c.2.3.3.5.4.6.2.2.4.3.7.3.5,0,.8-.2.8-.7s-.2-.6-.6-.8c-.2,0-.3-.2-.5-.2-.2,0-.3-.2-.5-.2-.5-.2-.8-.5-1-.7-.2-.3-.4-.7-.4-1.1s.2-1.1.6-1.5c.4-.4.9-.6,1.6-.6.9,0,1.6.5,2,1.4h0Z"/>
  <path class="st2" d="M63.6,12.2c0-.3.1-.5.3-.7s.5-.3.7-.3.5.1.7.3c.2.2.3.4.3.7s-.1.5-.3.7c-.2.2-.4.3-.7.3s-.5-.1-.7-.3c-.2-.2-.3-.5-.3-.8h0ZM65.4,15.1v7h-1.6v-7h1.6Z"/>
  <path class="st2" d="M66.9,18.5c0-1,.4-1.9,1.1-2.6.7-.7,1.6-1.1,2.6-1.1s1.9.4,2.7,1.1c.7.7,1.1,1.6,1.1,2.6s-.4,1.9-1.1,2.6c-.7.7-1.6,1.1-2.7,1.1s-1.9-.4-2.6-1.1c-.7-.7-1.1-1.6-1.1-2.7h0ZM68.5,18.6c0,.7.2,1.3.6,1.7.4.4.9.6,1.5.6s1.1-.2,1.5-.6c.4-.4.6-1,.6-1.6s-.2-1.2-.6-1.6c-.4-.4-.9-.6-1.5-.6s-1.1.2-1.5.6-.6.9-.6,1.6h0Z"/>
  <path class="st2" d="M75.8,15.1h1.6v.6c.6-.6,1.2-.8,1.9-.8s1.4.3,1.9.8c.4.4.6,1.1.6,2.1v4.3h-1.6v-3.9c0-.7,0-1.2-.3-1.4-.2-.3-.5-.4-1-.4s-.9.2-1.1.5c-.2.3-.3,1-.3,1.8v3.4h-1.6v-7h0Z"/>
  <path class="st4" d="M84.4,11l2.9,7.4,3-8,2.9,8,3.1-7.4h1.8l-5,11.8-2.9-7.9-3,7.9-4.7-11.8h1.8,0Z"/>
  <path class="st2" d="M103.2,15.1h1.6v7h-1.6v-.7c-.7.6-1.4.9-2.1.9s-1.8-.3-2.4-1c-.6-.7-.9-1.6-.9-2.7s.3-1.9.9-2.6c.6-.7,1.4-1,2.4-1s1.5.3,2.2,1v-.8h0ZM99.3,18.6c0,.7.2,1.2.5,1.6.4.4.8.6,1.4.6s1.1-.2,1.5-.6c.4-.4.6-1,.6-1.6s-.2-1.2-.6-1.6c-.4-.4-.8-.6-1.4-.6s-1,.2-1.4.6c-.4.4-.6,1-.6,1.6h0Z"/>
  <path class="st2" d="M107.6,15.1l1.8,3.9,1.8-3.9h1.8l-3.6,7.5-3.6-7.5h1.8Z"/>
  <path class="st2" d="M119.9,19h-5c0,.6.2,1,.6,1.4.3.3.8.5,1.3.5s.7,0,1-.3c.3-.2.6-.5.9-1.1l1.4.8c-.2.4-.4.7-.7.9-.2.3-.5.5-.8.6-.3.2-.6.3-.9.4s-.6.1-1,.1c-1,0-1.9-.3-2.5-1-.6-.7-.9-1.6-.9-2.7s.3-2,.9-2.7c.6-.7,1.4-1,2.5-1s1.8.3,2.4,1c.6.7.9,1.6.9,2.7v.4s0,0,0,0ZM118.3,17.7c-.2-.9-.8-1.3-1.6-1.3s-.4,0-.6,0c-.2,0-.3.1-.5.3-.1.1-.3.2-.4.4s-.2.3-.2.5h3.2Z"/>
</svg>